# xmcd
#
# Track frame offsets: 
#        150
#        19965
#        39912
#        53277
#        67622
#        77402
#        90695
#        109627
#        128890
#        136812
#        153757
#        170052
#        192591
#        202271
#        228288
#        237491
#        273316
#        287636
#        297796
#        314208
#        332247
#
# Disc length: 4575 seconds
#
# Revision: 0
# Processed by: cddbd v1.5.2PL0 Copyright (c) Steve Scherf et al.
# Submitted via: ExactAudioCopy v1.0b1
#
DISCID=2811dd15
DTITLE=Ry Cooder - Crossroads
DYEAR=2011
DGENRE=Blues
TTITLE0=Crossroads
TTITLE1=Down in Mississippi
TTITLE2=Cotton Needs Pickin'
TTITLE3=Viola Lee Blues
TTITLE4=See You in Hell, Blind Boy
TTITLE5=Nitty Gritty Mississippi
TTITLE6=He Made a Woman Out of Me
TTITLE7=Feelin' Bad Blues
TTITLE8=Somebody's Callin' My Name
TTITLE9=Willie Brown Blues
TTITLE10=Walkin' Away Blues
TTITLE11=Dark Was the Night (live)
TTITLE12=Get Away
TTITLE13=The Tattler (live)
TTITLE14=Cibeue
TTITLE15=How Can a Poor Man Stand Such Times and Live (live)
TTITLE16=La Vista
TTITLE17=I Have Seen My Power
TTITLE18=The Hashishin
TTITLE19=Coming in on a Wing and a Prayer (live)
TTITLE20=Powis Square
EXTD=
EXTT0=
EXTT1=
EXTT2=
EXTT3=
EXTT4=
EXTT5=
EXTT6=
EXTT7=
EXTT8=
EXTT9=
EXTT10=
EXTT11=
EXTT12=
EXTT13=
EXTT14=
EXTT15=
EXTT16=
EXTT17=
EXTT18=
EXTT19=
EXTT20=
PLAYORDER=
